<svg width="20" height="20" viewBox="0 0 20 20" fill="none" xmlns="http://www.w3.org/2000/svg">
<path d="M16.25 2.50098H14.375V1.87598C14.375 1.71022 14.3092 1.55125 14.1919 1.43403C14.0747 1.31682 13.9158 1.25098 13.75 1.25098C13.5842 1.25098 13.4253 1.31682 13.3081 1.43403C13.1908 1.55125 13.125 1.71022 13.125 1.87598V2.50098H6.875V1.87598C6.875 1.71022 6.80915 1.55125 6.69194 1.43403C6.57473 1.31682 6.41576 1.25098 6.25 1.25098C6.08424 1.25098 5.92527 1.31682 5.80806 1.43403C5.69085 1.55125 5.625 1.71022 5.625 1.87598V2.50098H3.75C3.41848 2.50098 3.10054 2.63267 2.86612 2.86709C2.6317 3.10151 2.5 3.41946 2.5 3.75098V16.251C2.5 16.5825 2.6317 16.9004 2.86612 17.1349C3.10054 17.3693 3.41848 17.501 3.75 17.501H16.25C16.5815 17.501 16.8995 17.3693 17.1339 17.1349C17.3683 16.9004 17.5 16.5825 17.5 16.251V3.75098C17.5 3.41946 17.3683 3.10151 17.1339 2.86709C16.8995 2.63267 16.5815 2.50098 16.25 2.50098ZM5.625 3.75098V4.37598C5.625 4.54174 5.69085 4.70071 5.80806 4.81792C5.92527 4.93513 6.08424 5.00098 6.25 5.00098C6.41576 5.00098 6.57473 4.93513 6.69194 4.81792C6.80915 4.70071 6.875 4.54174 6.875 4.37598V3.75098H13.125V4.37598C13.125 4.54174 13.1908 4.70071 13.3081 4.81792C13.4253 4.93513 13.5842 5.00098 13.75 5.00098C13.9158 5.00098 14.0747 4.93513 14.1919 4.81792C14.3092 4.70071 14.375 4.54174 14.375 4.37598V3.75098H16.25V6.25098H3.75V3.75098H5.625ZM16.25 16.251H3.75V7.50098H16.25V16.251ZM10.9375 10.3135C10.9375 10.4989 10.8825 10.6802 10.7795 10.8343C10.6765 10.9885 10.5301 11.1087 10.3588 11.1796C10.1875 11.2506 9.99896 11.2691 9.8171 11.233C9.63525 11.1968 9.4682 11.1075 9.33709 10.9764C9.20598 10.8453 9.11669 10.6782 9.08051 10.4964C9.04434 10.3145 9.06291 10.126 9.13386 9.95471C9.20482 9.78341 9.32498 9.63699 9.47915 9.53397C9.63332 9.43096 9.81458 9.37598 10 9.37598C10.2486 9.37598 10.4871 9.47475 10.6629 9.65056C10.8387 9.82638 10.9375 10.0648 10.9375 10.3135ZM14.375 10.3135C14.375 10.4989 14.32 10.6802 14.217 10.8343C14.114 10.9885 13.9676 11.1087 13.7963 11.1796C13.625 11.2506 13.4365 11.2691 13.2546 11.233C13.0727 11.1968 12.9057 11.1075 12.7746 10.9764C12.6435 10.8453 12.5542 10.6782 12.518 10.4964C12.4818 10.3145 12.5004 10.126 12.5714 9.95471C12.6423 9.78341 12.7625 9.63699 12.9167 9.53397C13.0708 9.43096 13.2521 9.37598 13.4375 9.37598C13.6861 9.37598 13.9246 9.47475 14.1004 9.65056C14.2762 9.82638 14.375 10.0648 14.375 10.3135ZM7.5 13.4385C7.5 13.6239 7.44502 13.8052 7.342 13.9593C7.23899 14.1135 7.09257 14.2337 6.92127 14.3046C6.74996 14.3756 6.56146 14.3941 6.3796 14.358C6.19775 14.3218 6.0307 14.2325 5.89959 14.1014C5.76848 13.9703 5.67919 13.8032 5.64301 13.6214C5.60684 13.4395 5.62541 13.251 5.69636 13.0797C5.76732 12.9084 5.88748 12.762 6.04165 12.659C6.19582 12.556 6.37708 12.501 6.5625 12.501C6.81114 12.501 7.0496 12.5997 7.22541 12.7756C7.40123 12.9514 7.5 13.1898 7.5 13.4385ZM10.9375 13.4385C10.9375 13.6239 10.8825 13.8052 10.7795 13.9593C10.6765 14.1135 10.5301 14.2337 10.3588 14.3046C10.1875 14.3756 9.99896 14.3941 9.8171 14.358C9.63525 14.3218 9.4682 14.2325 9.33709 14.1014C9.20598 13.9703 9.11669 13.8032 9.08051 13.6214C9.04434 13.4395 9.06291 13.251 9.13386 13.0797C9.20482 12.9084 9.32498 12.762 9.47915 12.659C9.63332 12.556 9.81458 12.501 10 12.501C10.2486 12.501 10.4871 12.5997 10.6629 12.7756C10.8387 12.9514 10.9375 13.1898 10.9375 13.4385ZM14.375 13.4385C14.375 13.6239 14.32 13.8052 14.217 13.9593C14.114 14.1135 13.9676 14.2337 13.7963 14.3046C13.625 14.3756 13.4365 14.3941 13.2546 14.358C13.0727 14.3218 12.9057 14.2325 12.7746 14.1014C12.6435 13.9703 12.5542 13.8032 12.518 13.6214C12.4818 13.4395 12.5004 13.251 12.5714 13.0797C12.6423 12.9084 12.7625 12.762 12.9167 12.659C13.0708 12.556 13.2521 12.501 13.4375 12.501C13.6861 12.501 13.9246 12.5997 14.1004 12.7756C14.2762 12.9514 14.375 13.1898 14.375 13.4385Z" fill="#303840"/>
</svg>
