<svg width="20" height="20" viewBox="0 0 20 20" fill="none" xmlns="http://www.w3.org/2000/svg">
<path d="M10 1.87402C8.39303 1.87402 6.82214 2.35055 5.486 3.24333C4.14985 4.13612 3.10844 5.40507 2.49348 6.88972C1.87852 8.37437 1.71762 10.008 2.03112 11.5841C2.34463 13.1602 3.11846 14.608 4.25476 15.7443C5.39106 16.8806 6.8388 17.6544 8.4149 17.9679C9.99099 18.2814 11.6247 18.1205 13.1093 17.5055C14.594 16.8906 15.8629 15.8492 16.7557 14.513C17.6485 13.1769 18.125 11.606 18.125 9.99902C18.1227 7.84484 17.266 5.77953 15.7427 4.25629C14.2195 2.73305 12.1542 1.8763 10 1.87402ZM10 16.874C8.64026 16.874 7.31105 16.4708 6.18046 15.7154C5.04987 14.9599 4.16868 13.8862 3.64833 12.63C3.12798 11.3737 2.99183 9.9914 3.2571 8.65778C3.52238 7.32416 4.17716 6.09915 5.13864 5.13766C6.10013 4.17618 7.32514 3.5214 8.65876 3.25612C9.99238 2.99085 11.3747 3.127 12.631 3.64735C13.8872 4.1677 14.9609 5.04889 15.7164 6.17948C16.4718 7.31007 16.875 8.63928 16.875 9.99902C16.8729 11.8218 16.1479 13.5692 14.8591 14.8581C13.5702 16.147 11.8227 16.872 10 16.874ZM15 9.99902C15 10.1648 14.9342 10.3238 14.8169 10.441C14.6997 10.5582 14.5408 10.624 14.375 10.624H10C9.83424 10.624 9.67527 10.5582 9.55806 10.441C9.44085 10.3238 9.375 10.1648 9.375 9.99902V5.62402C9.375 5.45826 9.44085 5.29929 9.55806 5.18208C9.67527 5.06487 9.83424 4.99902 10 4.99902C10.1658 4.99902 10.3247 5.06487 10.4419 5.18208C10.5592 5.29929 10.625 5.45826 10.625 5.62402V9.37402H14.375C14.5408 9.37402 14.6997 9.43987 14.8169 9.55708C14.9342 9.67429 15 9.83326 15 9.99902Z" fill="#303840"/>
</svg>
