<svg width="24" height="24" viewBox="0 0 24 24" fill="none" xmlns="http://www.w3.org/2000/svg">
<path d="M19.7095 7.65136C19.8667 7.49421 20.1375 7.47819 20.2967 7.65191C21.2294 8.66922 21.7456 9.42249 21.9156 10.2567C22.0134 10.7367 22.0273 11.2252 21.9567 11.7004C21.7659 12.9846 20.7254 14.0251 18.6444 16.1061L16.1061 18.6444C14.0251 20.7254 12.9846 21.7659 11.7004 21.9567C11.2252 22.0273 10.7367 22.0134 10.2567 21.9156C9.42257 21.7456 8.66938 21.2295 7.65224 20.297C7.47831 20.1376 7.49439 19.8665 7.65171 19.7092C8.5279 18.833 8.48626 17.3708 7.55873 16.4432C6.63119 15.5157 5.16899 15.4741 4.2928 16.3503C4.13548 16.5076 3.86438 16.5237 3.70492 16.3497C2.77243 15.3326 2.25633 14.5794 2.08636 13.7453C1.98856 13.2653 1.97465 12.7768 2.04526 12.3016C2.2361 11.0174 3.27658 9.97686 5.35754 7.8959L7.89589 5.35755C9.97685 3.27659 11.0174 2.23611 12.3016 2.04526C12.7768 1.97466 13.2653 1.98857 13.7453 2.08637C14.5795 2.25636 15.3328 2.77255 16.3501 3.70525C16.5238 3.86453 16.5078 4.1353 16.3506 4.29245C15.4744 5.16863 15.5161 6.63083 16.4436 7.55837C17.3711 8.48591 18.8334 8.52754 19.7095 7.65136Z" stroke="white" stroke-width="1.5" stroke-linejoin="round"/>
<path d="M19 15L9 5" stroke="white" stroke-width="1.5" stroke-linecap="round" stroke-linejoin="round"/>
</svg>
