<svg width="121" height="40" viewBox="0 0 121 40" fill="none" xmlns="http://www.w3.org/2000/svg">
<rect x="1.35547" y="0.5" width="119" height="39" rx="5.5" fill="black"/>
<rect x="1.35547" y="0.5" width="119" height="39" rx="5.5" stroke="#A6A6A6"/>
<path d="M18.6605 19.4617L8.94531 30.0059C8.94622 30.0078 8.94622 30.0106 8.94714 30.0125C9.24552 31.1574 10.2675 32 11.4811 32C11.9665 32 12.4219 31.8656 12.8124 31.6305L12.8434 31.6118L23.7787 25.1593L18.6605 19.4617Z" fill="#EA4335"/>
<path d="M28.4867 17.6662L28.4776 17.6597L23.7564 14.8612L18.4375 19.7013L23.7755 25.1582L28.4712 22.3878C29.2942 21.9324 29.8536 21.045 29.8536 20.0223C29.8536 19.0052 29.3024 18.1225 28.4867 17.6662Z" fill="#FBBC04"/>
<path d="M8.94489 9.99325C8.88649 10.2135 8.85547 10.4449 8.85547 10.6838V29.3163C8.85547 29.5552 8.88649 29.7866 8.9458 30.0059L18.9941 19.7313L8.94489 9.99325Z" fill="#4285F4"/>
<path d="M18.7326 20L23.7604 14.8594L12.838 8.3836C12.441 8.14005 11.9775 8.00009 11.482 8.00009C10.2684 8.00009 9.24461 8.84456 8.94622 9.99043C8.94622 9.99136 8.94531 9.9923 8.94531 9.99323L18.7326 20Z" fill="#34A853"/>
<path d="M37.6205 7.7C37.7345 7.682 37.8605 7.67 37.9985 7.664C38.1425 7.652 38.2895 7.646 38.4395 7.646C38.5955 7.64 38.7455 7.637 38.8895 7.637C39.0395 7.631 39.1775 7.628 39.3035 7.628C39.8075 7.628 40.2425 7.706 40.6085 7.862C40.9805 8.018 41.2865 8.237 41.5265 8.519C41.7665 8.795 41.9435 9.128 42.0575 9.518C42.1775 9.908 42.2375 10.337 42.2375 10.805C42.2375 11.231 42.1805 11.642 42.0665 12.038C41.9585 12.428 41.7845 12.776 41.5445 13.082C41.3045 13.382 40.9925 13.625 40.6085 13.811C40.2245 13.991 39.7595 14.081 39.2135 14.081C39.1175 14.081 38.9915 14.078 38.8355 14.072C38.6855 14.072 38.5295 14.066 38.3675 14.054C38.2055 14.048 38.0555 14.042 37.9175 14.036C37.7795 14.03 37.6805 14.021 37.6205 14.009V7.7ZM39.3215 8.294C39.2435 8.294 39.1565 8.294 39.0605 8.294C38.9705 8.294 38.8805 8.297 38.7905 8.303C38.7005 8.309 38.6165 8.315 38.5385 8.321C38.4665 8.327 38.4095 8.333 38.3675 8.339V13.379C38.3975 13.385 38.4545 13.391 38.5385 13.397C38.6225 13.397 38.7095 13.4 38.7995 13.406C38.8895 13.406 38.9765 13.409 39.0605 13.415C39.1445 13.415 39.2015 13.415 39.2315 13.415C39.6515 13.415 40.0025 13.343 40.2845 13.199C40.5725 13.055 40.8005 12.863 40.9685 12.623C41.1425 12.377 41.2655 12.098 41.3375 11.786C41.4095 11.468 41.4455 11.141 41.4455 10.805C41.4455 10.511 41.4125 10.217 41.3465 9.923C41.2805 9.623 41.1665 9.353 41.0045 9.113C40.8425 8.873 40.6235 8.678 40.3475 8.528C40.0775 8.372 39.7355 8.294 39.3215 8.294ZM43.5091 7.7H46.9381V8.366H44.2561V10.427H46.7131V11.093H44.2561V13.334H46.9831V14H43.5091V7.7ZM51.1783 12.398C51.1783 12.146 51.1033 11.942 50.9533 11.786C50.8033 11.624 50.6143 11.483 50.3863 11.363C50.1643 11.237 49.9213 11.12 49.6573 11.012C49.3933 10.904 49.1473 10.775 48.9193 10.625C48.6973 10.469 48.5113 10.28 48.3613 10.058C48.2113 9.83 48.1363 9.542 48.1363 9.194C48.1363 8.702 48.3073 8.312 48.6493 8.024C48.9913 7.736 49.4773 7.592 50.1073 7.592C50.4733 7.592 50.8063 7.619 51.1063 7.673C51.4063 7.727 51.6403 7.796 51.8083 7.88L51.5833 8.537C51.4453 8.471 51.2413 8.408 50.9713 8.348C50.7073 8.288 50.4073 8.258 50.0713 8.258C49.6753 8.258 49.3783 8.348 49.1803 8.528C48.9823 8.702 48.8833 8.909 48.8833 9.149C48.8833 9.383 48.9583 9.578 49.1083 9.734C49.2583 9.89 49.4443 10.031 49.6663 10.157C49.8943 10.277 50.1403 10.397 50.4043 10.517C50.6683 10.637 50.9113 10.778 51.1333 10.94C51.3613 11.096 51.5503 11.285 51.7003 11.507C51.8503 11.729 51.9253 12.005 51.9253 12.335C51.9253 12.605 51.8773 12.848 51.7813 13.064C51.6853 13.28 51.5443 13.466 51.3583 13.622C51.1723 13.778 50.9473 13.898 50.6833 13.982C50.4193 14.066 50.1193 14.108 49.7833 14.108C49.3333 14.108 48.9613 14.072 48.6673 14C48.3733 13.934 48.1453 13.859 47.9833 13.775L48.2353 13.1C48.3733 13.178 48.5773 13.256 48.8473 13.334C49.1173 13.406 49.4203 13.442 49.7563 13.442C49.9543 13.442 50.1403 13.424 50.3143 13.388C50.4883 13.346 50.6383 13.283 50.7643 13.199C50.8903 13.109 50.9893 12.998 51.0613 12.866C51.1393 12.734 51.1783 12.578 51.1783 12.398ZM57.1476 13.739C56.9676 13.877 56.7396 13.973 56.4636 14.027C56.1876 14.081 55.8936 14.108 55.5816 14.108C55.2036 14.108 54.8496 14.045 54.5196 13.919C54.1896 13.787 53.9016 13.589 53.6556 13.325C53.4096 13.061 53.2146 12.725 53.0706 12.317C52.9266 11.903 52.8546 11.414 52.8546 10.85C52.8546 10.262 52.9326 9.764 53.0886 9.356C53.2506 8.942 53.4606 8.606 53.7186 8.348C53.9826 8.084 54.2766 7.892 54.6006 7.772C54.9246 7.652 55.2546 7.592 55.5906 7.592C55.9506 7.592 56.2446 7.613 56.4726 7.655C56.7006 7.691 56.8956 7.742 57.0576 7.808L56.8776 8.465C56.5896 8.327 56.1786 8.258 55.6446 8.258C55.3986 8.258 55.1556 8.303 54.9156 8.393C54.6756 8.483 54.4596 8.63 54.2676 8.834C54.0816 9.038 53.9316 9.305 53.8176 9.635C53.7036 9.965 53.6466 10.37 53.6466 10.85C53.6466 11.282 53.7006 11.66 53.8086 11.984C53.9166 12.308 54.0636 12.578 54.2496 12.794C54.4416 13.01 54.6636 13.172 54.9156 13.28C55.1736 13.388 55.4526 13.442 55.7526 13.442C56.0226 13.442 56.2566 13.415 56.4546 13.361C56.6586 13.307 56.8296 13.238 56.9676 13.154L57.1476 13.739ZM60.9993 12.254H58.6773L58.0473 14H57.3093L59.6943 7.601H60.0363L62.4303 14H61.6473L60.9993 12.254ZM58.9203 11.606H60.7743L60.0723 9.689L59.8473 8.735H59.8383L59.6133 9.707L58.9203 11.606ZM63.267 7.763C63.495 7.721 63.756 7.688 64.05 7.664C64.35 7.64 64.623 7.628 64.869 7.628C65.145 7.628 65.406 7.658 65.652 7.718C65.904 7.778 66.123 7.877 66.309 8.015C66.501 8.153 66.654 8.333 66.768 8.555C66.882 8.777 66.939 9.047 66.939 9.365C66.939 9.857 66.804 10.256 66.534 10.562C66.264 10.868 65.922 11.072 65.508 11.174L65.94 11.507L67.506 14H66.633L64.896 11.282L64.014 11.147V14H63.267V7.763ZM64.887 8.276C64.809 8.276 64.728 8.276 64.644 8.276C64.56 8.276 64.479 8.279 64.401 8.285C64.323 8.291 64.248 8.297 64.176 8.303C64.11 8.309 64.056 8.318 64.014 8.33V10.652H64.716C65.13 10.652 65.472 10.55 65.742 10.346C66.012 10.142 66.147 9.824 66.147 9.392C66.147 9.068 66.036 8.801 65.814 8.591C65.592 8.381 65.283 8.276 64.887 8.276ZM70.348 10.859H72.463V13.631C72.367 13.703 72.25 13.769 72.112 13.829C71.98 13.889 71.836 13.94 71.68 13.982C71.53 14.024 71.371 14.054 71.203 14.072C71.041 14.096 70.882 14.108 70.726 14.108C70.324 14.108 69.955 14.045 69.619 13.919C69.283 13.787 68.992 13.589 68.746 13.325C68.5 13.055 68.308 12.716 68.17 12.308C68.032 11.894 67.963 11.408 67.963 10.85C67.963 10.268 68.047 9.77 68.215 9.356C68.383 8.942 68.602 8.606 68.872 8.348C69.142 8.084 69.445 7.892 69.781 7.772C70.117 7.652 70.453 7.592 70.789 7.592C71.149 7.592 71.446 7.613 71.68 7.655C71.914 7.691 72.112 7.742 72.274 7.808L72.085 8.465C71.797 8.327 71.386 8.258 70.852 8.258C70.6 8.258 70.348 8.303 70.096 8.393C69.85 8.477 69.628 8.621 69.43 8.825C69.232 9.029 69.07 9.296 68.944 9.626C68.818 9.956 68.755 10.364 68.755 10.85C68.755 11.294 68.806 11.678 68.908 12.002C69.01 12.326 69.151 12.596 69.331 12.812C69.517 13.022 69.739 13.181 69.997 13.289C70.255 13.391 70.537 13.442 70.843 13.442C71.227 13.442 71.554 13.367 71.824 13.217V11.462L70.348 11.282V10.859ZM76.7317 12.254H74.4097L73.7797 14H73.0417L75.4267 7.601H75.7687L78.1627 14H77.3797L76.7317 12.254ZM74.6527 11.606H76.5067L75.8047 9.689L75.5797 8.735H75.5707L75.3457 9.707L74.6527 11.606ZM78.9994 7.763C79.2274 7.721 79.4884 7.688 79.7824 7.664C80.0824 7.64 80.3554 7.628 80.6014 7.628C80.8774 7.628 81.1384 7.658 81.3844 7.718C81.6364 7.778 81.8554 7.877 82.0414 8.015C82.2334 8.153 82.3864 8.333 82.5004 8.555C82.6144 8.777 82.6714 9.047 82.6714 9.365C82.6714 9.857 82.5364 10.256 82.2664 10.562C81.9964 10.868 81.6544 11.072 81.2404 11.174L81.6724 11.507L83.2384 14H82.3654L80.6284 11.282L79.7464 11.147V14H78.9994V7.763ZM80.6194 8.276C80.5414 8.276 80.4604 8.276 80.3764 8.276C80.2924 8.276 80.2114 8.279 80.1334 8.285C80.0554 8.291 79.9804 8.297 79.9084 8.303C79.8424 8.309 79.7884 8.318 79.7464 8.33V10.652H80.4484C80.8624 10.652 81.2044 10.55 81.4744 10.346C81.7444 10.142 81.8794 9.824 81.8794 9.392C81.8794 9.068 81.7684 8.801 81.5464 8.591C81.3244 8.381 81.0154 8.276 80.6194 8.276ZM86.7513 7.7H90.1803V8.366H87.4983V10.427H89.9553V11.093H87.4983V13.334H90.2253V14H86.7513V7.7ZM92.7105 9.878L92.2245 8.969H92.1885L92.2785 9.878V14H91.5765V7.601H91.9725L94.9875 11.804L95.4555 12.668H95.5005L95.4015 11.804V7.7H96.1035V14.099H95.7075L92.7105 9.878Z" fill="white"/>
<path d="M94.3736 31.4097H96.0024V20.3981H94.3736V31.4097ZM109.044 24.3646L107.177 29.1388H107.121L105.183 24.3646H103.429L106.335 31.0371L104.679 34.749H106.377L110.855 24.3646H109.044ZM99.8073 30.1588C99.2731 30.1588 98.5294 29.8902 98.5294 29.2234C98.5294 28.3742 99.4556 28.0483 100.256 28.0483C100.972 28.0483 101.31 28.2042 101.744 28.4165C101.618 29.4365 100.747 30.1588 99.8073 30.1588ZM100.004 24.1241C98.8245 24.1241 97.6024 24.6482 97.0979 25.8101L98.5434 26.4188C98.8524 25.8101 99.4276 25.611 100.032 25.611C100.874 25.611 101.73 26.121 101.744 27.0283V27.1411C101.449 26.971 100.818 26.7165 100.046 26.7165C98.4875 26.7165 96.9006 27.5806 96.9006 29.1952C96.9006 30.6689 98.1785 31.6184 99.6101 31.6184C100.706 31.6184 101.31 31.1225 101.688 30.5411H101.744V31.3912H103.316V27.1692C103.316 25.2146 101.871 24.1241 100.004 24.1241ZM89.9376 25.7053H87.6209V21.9308H89.9376C91.1552 21.9308 91.8466 22.9482 91.8466 23.8176C91.8466 24.6711 91.1552 25.7053 89.9376 25.7053ZM89.8957 20.3981H85.993V31.4097H87.6209V27.2379H89.8957C91.7008 27.2379 93.4754 25.9184 93.4754 23.8176C93.4754 21.7168 91.7008 20.3981 89.8957 20.3981ZM68.6138 30.1606C67.4886 30.1606 66.5468 29.2102 66.5468 27.9047C66.5468 26.5852 67.4886 25.6198 68.6138 25.6198C69.725 25.6198 70.5961 26.5852 70.5961 27.9047C70.5961 29.2102 69.725 30.1606 68.6138 30.1606ZM70.4844 24.9812H70.4276C70.0619 24.5417 69.3592 24.1444 68.4732 24.1444C66.6166 24.1444 64.9153 25.7898 64.9153 27.9047C64.9153 30.0047 66.6166 31.6369 68.4732 31.6369C69.3592 31.6369 70.0619 31.2396 70.4276 30.7851H70.4844V31.3251C70.4844 32.7582 69.725 33.5246 68.5012 33.5246C67.5026 33.5246 66.8837 32.8005 66.6306 32.1901L65.2104 32.7864C65.618 33.78 66.7013 35 68.5012 35C70.4137 35 72.0311 33.8646 72.0311 31.0978V24.3708H70.4844V24.9812ZM73.1563 31.4097H74.7877V20.3973H73.1563V31.4097ZM77.1917 27.777C77.1498 26.3298 78.3028 25.5916 79.1321 25.5916C79.7798 25.5916 80.3279 25.9176 80.5104 26.3862L77.1917 27.777ZM82.2544 26.528C81.9454 25.6912 81.0027 24.1444 79.0762 24.1444C77.1637 24.1444 75.5751 25.6621 75.5751 27.8907C75.5751 29.9906 77.1498 31.6369 79.2587 31.6369C80.9608 31.6369 81.9454 30.5869 82.353 29.9765L81.0874 29.1247C80.6657 29.7493 80.0888 30.1606 79.2587 30.1606C78.4294 30.1606 77.8385 29.7774 77.4588 29.0261L82.4229 26.9534L82.2544 26.528ZM42.7056 25.2939V26.883H46.4738C46.3612 27.777 46.0662 28.4297 45.6167 28.8834C45.0676 29.4374 44.2096 30.0479 42.7056 30.0479C40.3846 30.0479 38.5707 28.1602 38.5707 25.8189C38.5707 23.4767 40.3846 21.5899 42.7056 21.5899C43.9573 21.5899 44.8712 22.0867 45.5459 22.7254L46.6571 21.604C45.7144 20.6959 44.4636 20 42.7056 20C39.5274 20 36.8555 22.6117 36.8555 25.8189C36.8555 29.0261 39.5274 31.6369 42.7056 31.6369C44.4208 31.6369 45.7144 31.0688 46.727 30.0047C47.7683 28.9547 48.0913 27.4793 48.0913 26.2866C48.0913 25.9176 48.0634 25.5775 48.0066 25.2939H42.7056ZM52.3763 30.1606C51.2511 30.1606 50.2805 29.2243 50.2805 27.8907C50.2805 26.5421 51.2511 25.6198 52.3763 25.6198C53.5006 25.6198 54.4712 26.5421 54.4712 27.8907C54.4712 29.2243 53.5006 30.1606 52.3763 30.1606ZM52.3763 24.1444C50.3224 24.1444 48.6491 25.7194 48.6491 27.8907C48.6491 30.0479 50.3224 31.6369 52.3763 31.6369C54.4293 31.6369 56.1027 30.0479 56.1027 27.8907C56.1027 25.7194 54.4293 24.1444 52.3763 24.1444ZM60.5055 30.1606C59.3804 30.1606 58.4097 29.2243 58.4097 27.8907C58.4097 26.5421 59.3804 25.6198 60.5055 25.6198C61.6307 25.6198 62.6004 26.5421 62.6004 27.8907C62.6004 29.2243 61.6307 30.1606 60.5055 30.1606ZM60.5055 24.1444C58.4525 24.1444 56.7791 25.7194 56.7791 27.8907C56.7791 30.0479 58.4525 31.6369 60.5055 31.6369C62.5585 31.6369 64.2319 30.0479 64.2319 27.8907C64.2319 25.7194 62.5585 24.1444 60.5055 24.1444Z" fill="white"/>
</svg>
