<svg width="30" height="28" viewBox="0 0 30 28" fill="none" xmlns="http://www.w3.org/2000/svg">
<path d="M1.66797 23.3333L10.8853 17.0539C14.2528 14.7597 15.7498 14.7597 19.1173 17.0539L28.3346 23.3333" stroke="#303840" stroke-width="2" stroke-linejoin="round"/>
<path d="M1.68919 17.4012C1.77712 21.4456 1.82108 23.4678 3.32945 24.9654C4.83781 26.463 6.93707 26.5149 11.1356 26.6187C13.7204 26.6826 16.2822 26.6826 18.867 26.6187C23.0655 26.5149 25.1648 26.463 26.6732 24.9654C28.1815 23.4678 28.2255 21.4456 28.3134 17.4012C28.3565 15.4198 28.334 13.4578 28.2459 11.4561C28.1912 10.2128 28.1638 9.59113 27.8485 9.03971C27.5332 8.48829 26.9897 8.13239 25.9027 7.42059L20.8882 4.13707C18.0336 2.26786 16.6063 1.33325 15.0013 1.33325C13.3963 1.33325 11.969 2.26786 9.1144 4.13707L4.09993 7.42059C3.01289 8.13239 2.46938 8.48829 2.15408 9.03971C1.83879 9.59113 1.81143 10.2128 1.75672 11.4561C1.66862 13.4578 1.64611 15.4198 1.68919 17.4012Z" stroke="#303840" stroke-width="2" stroke-linejoin="round"/>
<path d="M28.3346 10.6667L22.6475 14.8097C21.2686 15.8142 20.1352 16.6667 18.3346 16.6667M1.66797 10.6667L7.35514 14.8097C8.73404 15.8142 9.86745 16.6667 11.668 16.6667" stroke="#303840" stroke-width="2" stroke-linejoin="round"/>
</svg>
