<svg width="30" height="30" viewBox="0 0 30 30" fill="none" xmlns="http://www.w3.org/2000/svg">
<path d="M28.3346 12.3334V11.2901C28.3346 8.70391 28.3346 7.41084 27.5536 6.60742C26.7725 5.80401 25.5155 5.804 23.0013 5.804H20.2298C19.0066 5.804 18.9965 5.80162 17.8966 5.2512L13.4545 3.02827C11.5998 2.10014 10.6724 1.63607 9.68447 1.66832C8.69655 1.70057 7.79967 2.22419 6.0059 3.27143L4.36874 4.22724C3.05115 4.99647 2.39236 5.38109 2.03016 6.02094C1.66797 6.66079 1.66797 7.43999 1.66797 8.99839V19.9544C1.66797 22.002 1.66797 23.0258 2.12432 23.5956C2.42798 23.9748 2.85351 24.2297 3.32397 24.3142C4.03099 24.4411 4.89661 23.9358 6.6278 22.9251C7.80338 22.2387 8.93478 21.5259 10.3411 21.7192C11.5196 21.8812 12.6146 22.6247 13.668 23.1518" stroke="#303840" stroke-width="2" stroke-linecap="round" stroke-linejoin="round"/>
<path d="M9.66797 1.66675L9.66797 21.6667" stroke="#303840" stroke-width="2" stroke-linejoin="round"/>
<path d="M19 5.66675V11.6667" stroke="#303840" stroke-width="2" stroke-linecap="round" stroke-linejoin="round"/>
<path d="M23.4098 27.9113C23.1207 28.182 22.7343 28.3333 22.3322 28.3333C21.93 28.3333 21.5436 28.182 21.2545 27.9113C18.6071 25.4173 15.0593 22.6313 16.7895 18.5864C17.725 16.3994 19.9706 15 22.3322 15C24.6938 15 26.9393 16.3994 27.8748 18.5864C29.6028 22.6262 26.0637 25.4259 23.4098 27.9113Z" stroke="#303840" stroke-width="2"/>
<path d="M22.332 21H22.344" stroke="#303840" stroke-width="2.66667" stroke-linecap="round" stroke-linejoin="round"/>
</svg>
