<svg width="26" height="30" viewBox="0 0 26 30" fill="none" xmlns="http://www.w3.org/2000/svg">
<path d="M25.0013 25.6666C24.1435 23.951 22.3346 21.6989 22.3346 19.7037C22.3346 17.4392 22.824 14.6454 21.7716 12.5405C21.3272 11.6518 21.0013 10.7519 21.0013 9.74089V4.90468C21.0013 4.58909 20.7455 4.33325 20.4299 4.33325C18.5363 4.33325 17.0013 5.86828 17.0013 7.76182M7.66797 22.9999L12.5144 26.0289C12.8353 26.2295 13.1099 26.4961 13.3198 26.811L14.3346 28.3333" stroke="#303840" stroke-width="2" stroke-linecap="round"/>
<path d="M3.70312 19.0001C3.77602 20.4624 3.99354 21.3746 4.6427 22.0238C5.61901 23.0001 7.19036 23.0001 10.3331 23.0001C13.4758 23.0001 15.0471 23.0001 16.0234 22.0238C16.9997 21.0475 16.9997 19.4761 16.9997 16.3334V8.33341C16.9997 5.19072 16.9997 3.61937 16.0234 2.64306C15.0471 1.66675 13.4758 1.66675 10.3331 1.66675C7.19036 1.66675 5.61901 1.66675 4.6427 2.64306C3.99354 3.29222 3.77602 4.20445 3.70312 5.66675" stroke="#303840" stroke-width="2" stroke-linejoin="round"/>
<path d="M2.66667 9.00008H4.66667C5.58714 9.00008 6.33333 8.25389 6.33333 7.33341C6.33333 6.41294 5.58714 5.66675 4.66667 5.66675L2.66667 5.66675C1.74619 5.66675 1 6.41294 1 7.33341C1 8.25389 1.74619 9.00008 2.66667 9.00008ZM2.66667 9.00008L6 9.00008C6.92047 9.00008 7.66667 9.74627 7.66667 10.6667C7.66667 11.5872 6.92047 12.3334 6 12.3334L2.66667 12.3334M2.66667 9.00008C1.74619 9.00008 1 9.74627 1 10.6667C1 11.5872 1.74619 12.3334 2.66667 12.3334M2.66667 12.3334L4.66667 12.3334C5.58714 12.3334 6.33333 13.0796 6.33333 14.0001C6.33333 14.9206 5.58714 15.6667 4.66667 15.6667H2.66667M2.66667 12.3334C1.74619 12.3334 1 13.0796 1 14.0001C1 14.9206 1.74619 15.6667 2.66667 15.6667M2.66667 15.6667H4C4.92047 15.6667 5.66667 16.4129 5.66667 17.3334C5.66667 18.2539 4.92047 19.0001 4 19.0001H2.66667C1.74619 19.0001 1 18.2539 1 17.3334C1 16.4129 1.74619 15.6667 2.66667 15.6667Z" stroke="#303840" stroke-width="2" stroke-linecap="round"/>
<path d="M10.3318 19H10.3438" stroke="#303840" stroke-width="2.66667" stroke-linecap="round" stroke-linejoin="round"/>
</svg>
