<svg width="121" height="40" viewBox="0 0 121 40" fill="none" xmlns="http://www.w3.org/2000/svg">
<rect x="1.35547" y="0.5" width="119" height="39" rx="5.5" fill="black"/>
<rect x="1.35547" y="0.5" width="119" height="39" rx="5.5" stroke="#A6A6A6"/>
<path d="M25.56 20.7632C25.5721 19.8433 25.8224 18.9414 26.2875 18.1413C26.7527 17.3412 27.4175 16.6689 28.2203 16.1871C27.7103 15.4761 27.0375 14.8909 26.2554 14.4781C25.4733 14.0653 24.6034 13.8362 23.7147 13.8091C21.819 13.6148 19.9812 14.9165 19.0152 14.9165C18.0305 14.9165 16.5432 13.8284 14.9416 13.8605C13.9057 13.8932 12.8961 14.1873 12.0112 14.7142C11.1262 15.2411 10.3962 15.9828 9.8922 16.867C7.70899 20.5574 9.33747 25.981 11.4289 28.9641C12.4752 30.4248 13.6981 32.0565 15.2983 31.9986C16.8641 31.9352 17.4489 31.0238 19.339 31.0238C21.2116 31.0238 21.7602 31.9986 23.3928 31.9618C25.0731 31.9352 26.1317 30.4946 27.1413 29.0201C27.8932 27.9793 28.4717 26.8289 28.8555 25.6117C27.8793 25.2086 27.0463 24.5339 26.4602 23.6717C25.8742 22.8095 25.5611 21.798 25.56 20.7632Z" fill="white"/>
<path d="M22.4775 11.8471C23.3936 10.7734 23.845 9.39335 23.7357 8C22.336 8.14352 21.0432 8.7966 20.1147 9.82911C19.6607 10.3335 19.313 10.9203 19.0915 11.556C18.8699 12.1917 18.7789 12.8638 18.8235 13.5338C19.5236 13.5408 20.2162 13.3927 20.8491 13.1005C21.482 12.8084 22.0388 12.3798 22.4775 11.8471Z" fill="white"/>
<path d="M37.6465 8.50146H39.7163C41.5049 8.50146 42.375 9.57373 42.375 11.4897C42.375 13.4146 41.4961 14.5 39.7163 14.5H37.6465V8.50146ZM38.644 9.37598V13.6255H39.6064C40.793 13.6255 41.3511 12.9224 41.3511 11.5073C41.3511 10.0879 40.7886 9.37598 39.6064 9.37598H38.644ZM45.5127 14.5791C44.2471 14.5791 43.4604 13.8057 43.4604 12.4785V11.8721C43.4604 10.5361 44.3218 9.77148 45.4556 9.77148C46.6201 9.77148 47.4419 10.5801 47.4419 11.8721V12.4126H44.4272V12.6411C44.4272 13.2915 44.8228 13.7705 45.5083 13.7705C46.0181 13.7705 46.3696 13.5288 46.4355 13.2388H47.3892C47.332 13.7881 46.7651 14.5791 45.5127 14.5791ZM44.4272 11.7578H46.4883V11.7007C46.4883 11.0195 46.0796 10.5669 45.46 10.5669C44.8403 10.5669 44.4272 11.0195 44.4272 11.7007V11.7578ZM48.4746 11.2085C48.4746 10.1934 49.3271 9.77148 50.272 9.77148C51.2915 9.77148 51.9902 10.2769 51.9902 11.1118H51.1113C51.085 10.813 50.8081 10.5054 50.2456 10.5054C49.749 10.5054 49.4106 10.7339 49.4106 11.1162C49.4106 11.626 50.0698 11.6919 50.584 11.7798C51.4497 11.9292 52.1177 12.2148 52.1177 13.0894C52.1177 14.0298 51.375 14.5791 50.1973 14.5791C49.0942 14.5791 48.3867 14.0693 48.3867 13.2388H49.3359C49.3887 13.6035 49.6567 13.8452 50.2456 13.8452C50.9004 13.8452 51.1685 13.5596 51.1685 13.208C51.1685 12.7334 50.6367 12.6631 50.0127 12.54C49.1646 12.3687 48.4746 12.1182 48.4746 11.2085ZM53.1108 12.4873V11.8369C53.1108 10.5845 53.8843 9.77148 55.1147 9.77148C56.3013 9.77148 56.9429 10.501 56.9648 11.3184H56.042C56.0024 11.0195 55.7827 10.6152 55.1367 10.6152C54.4556 10.6152 54.0908 11.103 54.0908 11.8589V12.4829C54.0908 13.2607 54.4819 13.7397 55.1411 13.7397C55.7607 13.7397 56.0024 13.4497 56.0684 13.0762H56.9912C56.9648 13.8892 56.3628 14.5791 55.1147 14.5791C53.8755 14.5791 53.1108 13.7793 53.1108 12.4873ZM59.4434 14.5703C58.5425 14.5703 57.9229 14.021 57.9229 13.1509C57.9229 12.3247 58.4941 11.771 59.5664 11.771H60.7397V11.3403C60.7397 10.8262 60.4014 10.5845 59.8652 10.5845C59.3379 10.5845 59.1006 10.7998 59.0259 11.0986H58.0986C58.1558 10.3296 58.7402 9.78027 59.896 9.78027C60.8892 9.78027 61.7109 10.1934 61.7109 11.3579V14.5H60.7837V13.9023H60.7397C60.5332 14.2539 60.1289 14.5703 59.4434 14.5703ZM59.7466 13.7881C60.3003 13.7881 60.7397 13.4233 60.7397 12.9312V12.439H59.7202C59.1533 12.439 58.9028 12.7158 58.9028 13.0938C58.9028 13.564 59.3071 13.7881 59.7466 13.7881ZM59.4917 9.10352L60.5376 7.54785H61.4429L60.2168 9.10352H59.4917ZM63.2183 14.5V9.85059H64.1895V10.5757H64.2422C64.3433 10.2637 64.6816 9.78027 65.4595 9.78027C65.5913 9.78027 65.6968 9.79346 65.7891 9.81104V10.7119C65.7056 10.6855 65.5342 10.6768 65.3716 10.6768C64.5894 10.6768 64.207 11.1338 64.207 11.7622V14.5H63.2183ZM68.5356 15.4141C69.2871 15.4141 69.6519 15.0186 69.6519 14.3462V13.687H69.5991C69.4233 14.0913 68.9487 14.4121 68.2983 14.4121C67.2744 14.4121 66.501 13.6782 66.501 12.395V11.8105C66.501 10.5273 67.27 9.78906 68.2983 9.78906C68.9839 9.78906 69.4761 10.1582 69.6299 10.5581H69.6782V9.85059H70.623V14.3901C70.623 15.6997 69.6694 16.2007 68.5049 16.2007C67.2524 16.2007 66.6548 15.5767 66.6021 14.8735H67.5688C67.6304 15.1855 67.9863 15.4141 68.5356 15.4141ZM68.6016 10.624C67.9204 10.624 67.4941 11.1294 67.4941 11.9292V12.3203C67.4941 13.1157 67.9556 13.6167 68.6104 13.6167C69.2783 13.6167 69.6519 13.0806 69.6519 12.4258V11.8325C69.6519 11.1646 69.2563 10.624 68.6016 10.624ZM73.3037 14.5703C72.4028 14.5703 71.7832 14.021 71.7832 13.1509C71.7832 12.3247 72.3545 11.771 73.4268 11.771H74.6001V11.3403C74.6001 10.8262 74.2617 10.5845 73.7256 10.5845C73.1982 10.5845 72.9609 10.7998 72.8862 11.0986H71.959C72.0161 10.3296 72.6006 9.78027 73.7563 9.78027C74.7495 9.78027 75.5713 10.1934 75.5713 11.3579V14.5H74.644V13.9023H74.6001C74.3936 14.2539 73.9893 14.5703 73.3037 14.5703ZM73.6069 13.7881C74.1606 13.7881 74.6001 13.4233 74.6001 12.9312V12.439H73.5806C73.0137 12.439 72.7632 12.7158 72.7632 13.0938C72.7632 13.564 73.1675 13.7881 73.6069 13.7881ZM77.0479 14.5V8.18506H78.0234V14.5H77.0479ZM80.8008 14.5703C79.8999 14.5703 79.2803 14.021 79.2803 13.1509C79.2803 12.3247 79.8516 11.771 80.9238 11.771H82.0972V11.3403C82.0972 10.8262 81.7588 10.5845 81.2227 10.5845C80.6953 10.5845 80.458 10.7998 80.3833 11.0986H79.4561C79.5132 10.3296 80.0977 9.78027 81.2534 9.78027C82.2466 9.78027 83.0684 10.1934 83.0684 11.3579V14.5H82.1411V13.9023H82.0972C81.8906 14.2539 81.4863 14.5703 80.8008 14.5703ZM81.104 13.7881C81.6577 13.7881 82.0972 13.4233 82.0972 12.9312V12.439H81.0776C80.5107 12.439 80.2603 12.7158 80.2603 13.0938C80.2603 13.564 80.6646 13.7881 81.104 13.7881ZM88.3682 14.5791C87.1025 14.5791 86.3159 13.8057 86.3159 12.4785V11.8721C86.3159 10.5361 87.1772 9.77148 88.311 9.77148C89.4756 9.77148 90.2974 10.5801 90.2974 11.8721V12.4126H87.2827V12.6411C87.2827 13.2915 87.6782 13.7705 88.3638 13.7705C88.8735 13.7705 89.2251 13.5288 89.291 13.2388H90.2446C90.1875 13.7881 89.6206 14.5791 88.3682 14.5791ZM87.2827 11.7578H89.3438V11.7007C89.3438 11.0195 88.9351 10.5669 88.3154 10.5669C87.6958 10.5669 87.2827 11.0195 87.2827 11.7007V11.7578ZM91.5278 14.5V9.85059H92.4858V10.6812H92.5342C92.6528 10.3164 92.9912 9.78027 93.9316 9.78027C94.8677 9.78027 95.4961 10.2988 95.4961 11.3667V14.5H94.5205V11.6611C94.5205 10.958 94.1514 10.646 93.6021 10.646C92.8813 10.646 92.5034 11.1821 92.5034 11.9204V14.5H91.5278ZM100.796 14.5791C99.5303 14.5791 98.7437 13.8057 98.7437 12.4785V11.8721C98.7437 10.5361 99.605 9.77148 100.739 9.77148C101.903 9.77148 102.725 10.5801 102.725 11.8721V12.4126H99.7104V12.6411C99.7104 13.2915 100.106 13.7705 100.792 13.7705C101.301 13.7705 101.653 13.5288 101.719 13.2388H102.672C102.615 13.7881 102.048 14.5791 100.796 14.5791ZM99.7104 11.7578H101.771V11.7007C101.771 11.0195 101.363 10.5669 100.743 10.5669C100.124 10.5669 99.7104 11.0195 99.7104 11.7007V11.7578ZM103.986 14.5V8.18506H104.962V14.5H103.986Z" fill="white"/>
<path d="M39.0615 30.5H37.0312L41.1621 18.5029H43.3945L47.5166 30.5H45.4072L44.3438 27.1777H40.1338L39.0615 30.5ZM42.2871 20.5771H42.208L40.582 25.6484H43.8955L42.2871 20.5771ZM53.1198 30.6318C51.9157 30.6318 51.0017 30.0605 50.5095 29.208H50.4392V33.585H48.488V21.21H50.3864V22.5723H50.4568C50.9665 21.6846 51.9157 21.0869 53.1638 21.0869C55.2468 21.0869 56.7321 22.6602 56.7321 25.4375V26.2637C56.7321 29.0234 55.2644 30.6318 53.1198 30.6318ZM52.6716 29.0234C53.9109 29.0234 54.7546 28.0303 54.7546 26.1582V25.5078C54.7546 23.7061 53.9636 22.6777 52.6364 22.6777C51.2741 22.6777 50.4216 23.7852 50.4216 25.499V26.1582C50.4216 27.916 51.2829 29.0234 52.6716 29.0234ZM63.0385 30.6318C61.8344 30.6318 60.9204 30.0605 60.4282 29.208H60.3579V33.585H58.4067V21.21H60.3051V22.5723H60.3754C60.8852 21.6846 61.8344 21.0869 63.0825 21.0869C65.1655 21.0869 66.6508 22.6602 66.6508 25.4375V26.2637C66.6508 29.0234 65.183 30.6318 63.0385 30.6318ZM62.5903 29.0234C63.8295 29.0234 64.6733 28.0303 64.6733 26.1582V25.5078C64.6733 23.7061 63.8823 22.6777 62.5551 22.6777C61.1928 22.6777 60.3403 23.7852 60.3403 25.499V26.1582C60.3403 27.916 61.2016 29.0234 62.5903 29.0234ZM70.6942 27.1689H72.6454C72.7333 28.2061 73.6473 29.0938 75.3436 29.0938C76.8993 29.0938 77.8221 28.3643 77.8221 27.2305C77.8221 26.3164 77.2069 25.8242 75.9237 25.5166L73.955 25.0244C72.4081 24.6641 71.0194 23.7412 71.0194 21.79C71.0194 19.4961 73.0233 18.2393 75.3524 18.2393C77.6815 18.2393 79.6239 19.4961 79.6679 21.7373H77.7518C77.6639 20.7178 76.8817 19.874 75.3261 19.874C73.955 19.874 73.0233 20.5244 73.0233 21.6406C73.0233 22.4229 73.5682 22.9854 74.6845 23.2402L76.6444 23.7236C78.4462 24.1631 79.8173 25.0156 79.8173 27.0547C79.8173 29.4102 77.91 30.7373 75.1942 30.7373C71.8544 30.7373 70.7382 28.7861 70.6942 27.1689ZM82.1949 21.21V18.9512H84.1109V21.21H85.9215V22.7744H84.1109V27.7314C84.1109 28.7422 84.4889 29.0234 85.5348 29.0234C85.7018 29.0234 85.86 29.0234 85.9742 29.0059V30.5C85.816 30.5264 85.4469 30.5615 85.0514 30.5615C82.7926 30.5615 82.1686 29.7529 82.1686 27.8896V22.7744H80.8854V21.21H82.1949ZM91.1907 21.0518C93.8626 21.0518 95.3128 22.9326 95.3128 25.4639V26.2109C95.3128 28.8301 93.8714 30.6582 91.1907 30.6582C88.5101 30.6582 87.0511 28.8301 87.0511 26.2109V25.4639C87.0511 22.9414 88.5189 21.0518 91.1907 21.0518ZM91.1907 22.6162C89.7405 22.6162 89.0198 23.8027 89.0198 25.4902V26.2021C89.0198 27.8633 89.7318 29.085 91.1907 29.085C92.6497 29.085 93.3529 27.8721 93.3529 26.2021V25.4902C93.3529 23.7939 92.6409 22.6162 91.1907 22.6162ZM96.961 30.5V21.21H98.9121V22.4316H98.9825C99.2198 21.8516 99.9141 21.0781 101.206 21.0781C101.461 21.0781 101.681 21.0957 101.865 21.1309V22.8535C101.698 22.8096 101.356 22.7832 101.03 22.7832C99.4659 22.7832 98.9385 23.75 98.9385 24.998V30.5H96.961ZM106.598 30.6582C104.111 30.6582 102.529 29.0146 102.529 26.2637V25.3232C102.529 22.7305 104.076 21.0518 106.519 21.0518C108.998 21.0518 110.492 22.792 110.492 25.4111V26.2988H104.454V26.5186C104.454 28.083 105.298 29.1201 106.625 29.1201C107.618 29.1201 108.295 28.6279 108.532 27.8281H110.386C110.105 29.3311 108.892 30.6582 106.598 30.6582ZM104.454 24.9365H108.585V24.9189C108.585 23.6006 107.767 22.5635 106.528 22.5635C105.271 22.5635 104.454 23.6006 104.454 24.9189V24.9365Z" fill="white"/>
</svg>
