<svg width="37" height="39" viewBox="0 0 37 39" fill="none" xmlns="http://www.w3.org/2000/svg">
<path d="M36.1135 1.27513H31.6181V37.7604L36.1135 35.1237V1.27513Z" fill="#303840"/>
<path fill-rule="evenodd" clip-rule="evenodd" d="M1 7.08284V15.8122L5.27561 18.4845L1 22.19V37.2972V37.7247H9.08804V37.2972V26.1093L13.0786 22.7601H20.4897V37.7247H27.4732V1.2395H9.08804L1 7.08284ZM9.80064 13.2825V10.1827L13.0786 8.15174H20.4897V15.2778H13.0786L9.80064 13.2825Z" fill="#303840"/>
<path d="M36.1135 1.27513H31.6181V37.7604L36.1135 35.1237V1.27513Z" stroke="#303840" stroke-width="0.601166" stroke-linejoin="round"/>
<path fill-rule="evenodd" clip-rule="evenodd" d="M1 7.08284V15.8122L5.27561 18.4845L1 22.19V37.2972V37.7247H9.08804V37.2972V26.1093L13.0786 22.7601H20.4897V37.7247H27.4732V1.2395H9.08804L1 7.08284ZM9.80064 13.2825V10.1827L13.0786 8.15174H20.4897V15.2778H13.0786L9.80064 13.2825Z" stroke="#303840" stroke-width="0.601166" stroke-linejoin="round"/>
</svg>
