<svg width="331" height="40" viewBox="0 0 331 40" fill="none" xmlns="http://www.w3.org/2000/svg">
<path d="M139.534 6.9131C139.729 7.75783 140.015 9.17436 139.859 9.20035C139.326 9.30432 138.651 9.35631 138.339 8.90146C138.248 8.7585 138.209 8.60255 138.17 8.43361C137.481 5.49655 136.324 3.14431 133.114 2.66346C131.36 2.39055 129.307 2.46853 127.578 2.91039C126.772 3.11832 126.006 3.44321 125.291 3.89806C124.732 4.24895 124.238 4.67781 123.796 5.19764C123.355 5.71747 123.043 6.32828 122.848 7.01706C122.757 7.44592 122.705 7.87478 122.705 8.29065C122.705 8.49858 122.731 8.81048 122.783 9.22635C122.835 9.64222 123.017 10.1361 123.303 10.7079C123.718 11.5006 124.251 12.2414 124.888 12.8912C125.525 13.554 126.201 14.1258 126.902 14.6066C128.241 15.5293 129.619 16.387 131.022 17.1798C131.217 17.2967 131.399 17.4137 131.568 17.5177C132.595 18.1025 133.595 18.7133 134.583 19.3241C135.571 19.9349 136.532 20.6107 137.455 21.3384C138.209 21.9233 138.911 22.599 139.56 23.3268C140.21 24.0676 140.769 24.8733 141.211 25.757C141.848 26.9916 142.173 28.3042 142.173 29.6948C142.173 29.8637 142.173 30.0456 142.147 30.2406C142.069 31.3842 141.783 32.4759 141.289 33.5025C140.821 34.4512 140.223 35.296 139.495 36.0107C138.768 36.7255 137.949 37.3233 137.052 37.7911C136.013 38.363 134.921 38.7788 133.751 39.0387C132.582 39.2987 131.425 39.4416 130.268 39.4546H129.723C128.566 39.4546 127.435 39.3636 126.292 39.1947C122.861 38.6749 119.417 36.8035 117.831 33.5675C117.493 32.8787 117.26 32.151 117.026 31.4232C116.623 30.1496 116.155 28.863 116.077 27.5244C116.051 27.1476 115.947 26.0949 116.246 25.809C116.571 25.5101 117.727 25.731 118.156 25.731C118.169 27.5115 118.689 29.2529 119.196 30.9683C119.859 33.1776 121.015 35.088 123.056 36.2706C124.706 37.2193 126.785 37.3883 128.657 37.3883H129.034C129.853 37.3753 130.658 37.2583 131.464 37.0504C132.27 36.8424 133.036 36.5175 133.751 36.0627C134.31 35.7118 134.804 35.2829 135.233 34.7631C135.662 34.2433 135.987 33.6325 136.194 32.9437C136.311 32.5408 136.363 32.151 136.363 31.7741C136.363 31.5272 136.337 31.1893 136.272 30.7604C136.207 30.3315 136.026 29.8247 135.74 29.2529C135.324 28.4601 134.791 27.7324 134.154 27.0826C133.517 26.4328 132.842 25.848 132.114 25.3541C130.788 24.4314 129.424 23.5737 128.02 22.781C127.825 22.664 127.63 22.5341 127.422 22.4171C126.422 21.8453 125.421 21.2475 124.433 20.6367C123.446 20.0259 122.497 19.3501 121.574 18.6223C120.82 18.0375 120.119 17.3617 119.469 16.634C118.819 15.8932 118.26 15.0875 117.818 14.2037C117.195 12.9691 116.883 11.6566 116.883 10.266V9.72019C116.961 8.57656 117.247 7.48491 117.727 6.45824C118.208 5.49655 118.806 4.66482 119.534 3.93706C120.262 3.22229 121.067 2.62448 121.964 2.15663C123.017 1.58481 124.121 1.16895 125.278 0.90903C126.422 0.649113 127.591 0.50616 128.774 0.493164H129.346C130.528 0.493164 131.724 0.558139 132.894 0.753076C134.401 1.01299 135.818 1.2989 137.013 2.32557C138.209 3.33924 138.924 4.84676 139.365 6.31528C139.378 6.38026 139.443 6.61419 139.508 6.9131H139.534Z" fill="#303840"/>
<path d="M70.4357 6.9131C70.6306 7.75783 70.9165 9.17436 70.7605 9.20035C70.2277 9.30432 69.5519 9.35631 69.24 8.90146C69.1491 8.7585 69.1101 8.60255 69.0711 8.43361C68.3823 5.49655 67.2257 3.14431 64.0157 2.66346C62.2613 2.39055 60.2079 2.46853 58.4795 2.91039C57.6738 3.11832 56.907 3.44321 56.1922 3.89806C55.6334 4.24895 55.1396 4.67781 54.6977 5.19764C54.2559 5.71747 53.944 6.32828 53.749 7.01706C53.6581 7.44592 53.6061 7.87478 53.6061 8.29065C53.6061 8.49858 53.6321 8.81048 53.6841 9.22635C53.736 9.64222 53.918 10.1361 54.2039 10.7079C54.6198 11.5006 55.1526 12.2414 55.7894 12.8912C56.4262 13.554 57.1019 14.1258 57.8037 14.6066C59.1423 15.5293 60.5198 16.387 61.9234 17.1798C62.1183 17.2967 62.3003 17.4137 62.4692 17.5177C63.4959 18.1025 64.4966 18.7133 65.4842 19.3241C66.4719 19.9349 67.4336 20.6107 68.3563 21.3384C69.1101 21.9233 69.8119 22.599 70.4616 23.3268C71.1114 24.0676 71.6703 24.8733 72.1121 25.757C72.7489 26.9916 73.0738 28.3042 73.0738 29.6948C73.0738 29.8637 73.0738 30.0456 73.0478 30.2406C72.9698 31.3842 72.6839 32.4759 72.1901 33.5025C71.7222 34.4512 71.1244 35.296 70.3967 36.0107C69.6689 36.7255 68.8502 37.3233 67.9535 37.7911C66.9138 38.363 65.8221 38.7788 64.6525 39.0387C63.4829 39.2987 62.3263 39.4416 61.1696 39.4546H60.6238C59.4672 39.4546 58.3366 39.3636 57.1929 39.1947C53.762 38.6749 50.3181 36.8035 48.7326 33.5675C48.3948 32.8787 48.1608 32.151 47.9269 31.4232C47.524 30.1496 47.0562 28.863 46.9782 27.5244C46.9522 27.1476 46.8483 26.0949 47.1472 25.809C47.4721 25.5101 48.6287 25.731 49.0575 25.731C49.0705 27.5115 49.5904 29.2529 50.0972 30.9683C50.76 33.1776 51.9166 35.088 53.957 36.2706C55.6074 37.2193 57.6868 37.3883 59.5582 37.3883H59.935C60.7538 37.3753 61.5595 37.2583 62.3653 37.0504C63.171 36.8424 63.9377 36.5175 64.6525 36.0627C65.2113 35.7118 65.7052 35.2829 66.134 34.7631C66.5629 34.2433 66.8878 33.6325 67.0957 32.9437C67.2127 32.5408 67.2647 32.151 67.2647 31.7741C67.2647 31.5272 67.2387 31.1893 67.1737 30.7604C67.1087 30.3315 66.9268 29.8247 66.6409 29.2529C66.225 28.4601 65.6922 27.7324 65.0554 27.0826C64.4186 26.4328 63.7428 25.848 63.015 25.3541C61.6895 24.4314 60.3249 23.5737 58.9214 22.781C58.7264 22.664 58.5315 22.5341 58.3236 22.4171C57.3229 21.8453 56.3222 21.2475 55.3345 20.6367C54.3468 20.0259 53.3981 19.3501 52.4754 18.6223C51.7217 18.0375 51.0199 17.3617 50.3701 16.634C49.7203 15.8932 49.1615 15.0875 48.7197 14.2037C48.0959 12.9691 47.784 11.6566 47.784 10.266V9.72019C47.8619 8.57656 48.1478 7.48491 48.6287 6.45824C49.1095 5.49655 49.7073 4.66482 50.4351 3.93706C51.1629 3.22229 51.9686 2.62448 52.8653 2.15663C53.918 1.58481 55.0226 1.16895 56.1792 0.90903C57.3229 0.649113 58.4925 0.50616 59.6751 0.493164H60.2469C61.4296 0.493164 62.6252 0.558139 63.7948 0.753076C65.3023 1.01299 66.7188 1.2989 67.9145 2.32557C69.1101 3.35224 69.8248 4.84676 70.2667 6.31528C70.2797 6.38026 70.3447 6.61419 70.4097 6.9131H70.4357Z" fill="#303840"/>
<path d="M92.1387 38.6749V1.33789H97.8698V38.6749H92.1387Z" fill="#303840"/>
<path d="M190.361 1.33789V2.97536H177.469V38.6619H171.738V2.97536H158.846V1.33789H190.361Z" fill="#303840"/>
<path d="M205.072 25.809L199.562 38.6749H197.886L213.896 1.33789H215.573L231.584 38.6749H225.255L219.745 25.809H205.072ZM212.402 8.71951L205.787 24.1715H219.017L212.402 8.71951Z" fill="#303840"/>
<path d="M252.299 1.33789L278.707 30.0196V1.33789H280.214V38.6749H278.538L252.143 9.96711V38.6749H250.61V1.33789H252.299Z" fill="#303840"/>
<path d="M329.689 7.09504C328.364 5.54854 326.843 4.33992 325.141 3.45621C323.425 2.58549 321.606 2.14363 319.682 2.14363C317.863 2.14363 316.108 2.5465 314.406 3.36524C313.016 4.04102 311.768 4.93773 310.637 6.04237C309.52 7.14702 308.558 8.39462 307.765 9.81116C306.907 11.3577 306.258 12.9951 305.829 14.7236C305.4 16.452 305.179 18.2065 305.179 19.9999C305.179 21.7933 305.4 23.5477 305.829 25.2762C306.258 27.0046 306.907 28.6421 307.765 30.1886C308.558 31.5921 309.52 32.8527 310.637 33.9574C311.755 35.062 313.016 35.9457 314.406 36.6215C316.096 37.4403 317.863 37.8431 319.682 37.8431C321.619 37.8431 323.438 37.4013 325.141 36.5305C326.843 35.6598 328.364 34.4382 329.689 32.8917L330.768 34.0873C329 35.8548 326.999 37.2063 324.79 38.129C322.58 39.0517 320.267 39.5066 317.876 39.5066C314.861 39.5066 312.002 38.7788 309.325 37.3363C306.635 35.8808 304.386 33.8144 302.567 31.1243C300.358 27.7194 299.253 24.0156 299.253 19.9999C299.253 15.9842 300.358 12.2804 302.567 8.87546C304.386 6.18533 306.648 4.106 309.325 2.66346C312.015 1.20793 314.861 0.493164 317.876 0.493164C320.267 0.493164 322.58 0.948014 324.79 1.87072C326.999 2.79342 329 4.13199 330.768 5.91242L329.689 7.10803V7.09504Z" fill="#303840"/>
<path d="M24.4825 38.207V22.0272H20.9606L7.5879 38.207H0.492188L13.8649 22.0272C12.0715 22.0272 10.447 21.5464 8.97845 20.5977C7.50993 19.649 6.3403 18.3624 5.45659 16.7639C4.57287 15.1654 4.14401 13.398 4.14401 11.4486C4.14401 9.49926 4.58587 7.73183 5.45659 6.13334C6.3403 4.53486 7.50993 3.26127 8.97845 2.29958C10.447 1.35089 12.0845 0.870044 13.8649 0.870044H30.2136V38.207H24.4825ZM24.4825 2.52051H18.0625C15.7883 2.52051 13.8519 3.39123 12.2534 5.13267C10.6419 6.87411 9.84917 8.97943 9.84917 11.4486C9.84917 13.9178 10.6549 15.9972 12.2534 17.7516C13.8519 19.506 15.8013 20.3768 18.0625 20.3768H24.4825V2.50751V2.52051Z" fill="#303840"/>
</svg>
