<svg width="24" height="25" viewBox="0 0 24 25" fill="none" xmlns="http://www.w3.org/2000/svg">
<path d="M23.1137 1.02244H20.2826V24L23.1137 22.3395V1.02244Z" fill="white"/>
<path fill-rule="evenodd" clip-rule="evenodd" d="M1 4.68V10.1776L3.69268 11.8605L1 14.1941V23.7083V23.9776H6.09366V23.7083V16.6624L8.60683 14.5532H13.2741V23.9776H17.6722V1H6.09366L1 4.68ZM6.54244 8.58439V6.63219L8.60683 5.35317H13.2741V9.84098H8.60683L6.54244 8.58439Z" fill="white"/>
<path d="M23.1137 1.02244H20.2826V24L23.1137 22.3395V1.02244Z" stroke="white" stroke-width="0.378601" stroke-linejoin="round"/>
<path fill-rule="evenodd" clip-rule="evenodd" d="M1 4.68V10.1776L3.69268 11.8605L1 14.1941V23.7083V23.9776H6.09366V23.7083V16.6624L8.60683 14.5532H13.2741V23.9776H17.6722V1H6.09366L1 4.68ZM6.54244 8.58439V6.63219L8.60683 5.35317H13.2741V9.84098H8.60683L6.54244 8.58439Z" stroke="white" stroke-width="0.378601" stroke-linejoin="round"/>
</svg>
